<svg xmlns="http://www.w3.org/2000/svg" width="36" height="46" viewBox="0 0 36 46" fill="none">
<path d="M35.4433 8.7757C35.4433 8.74221 35.4379 8.71417 35.432 8.68068C35.4266 8.64719 35.4208 8.6137 35.4153 8.58021C35.4098 8.54672 35.3986 8.51324 35.3873 8.4743C35.376 8.4521 35.3651 8.42406 35.3538 8.39602C35.3425 8.36254 35.3257 8.3236 35.3035 8.28426C35.2981 8.27297 35.2868 8.25623 35.2755 8.24532C35.2533 8.20054 35.2253 8.1616 35.1972 8.12266L28.9398 0.413157C28.8339 0.278807 28.6999 0.178342 28.5601 0.111371C28.5547 0.105919 28.5488 0.105919 28.5434 0.105919C28.4764 0.07243 28.404 0.0502341 28.3312 0.0334894C28.3257 0.0280377 28.3144 0.0280377 28.3031 0.0280377C28.2307 0.0112931 28.1637 0.00584112 28.0909 0.00584112C28.0854 0.00584112 28.0796 0.000389408 28.0741 0.000389408L1.11641 0C0.502309 0 0 0.50234 0 1.11641V44.8836C0 45.5031 0.502339 46 1.11641 46H34.3326C34.9467 46 35.449 45.5031 35.449 44.8836L35.4494 8.82631C35.4494 8.80956 35.4435 8.79282 35.4435 8.77607L35.4433 8.7757ZM12.6556 27.0865L20.7334 8.07788C20.9791 7.50857 21.6322 7.2461 22.2015 7.48598C22.7654 7.72585 23.0333 8.38473 22.7934 8.95409L14.7101 27.9627C14.5314 28.3871 14.1182 28.6437 13.6828 28.6437C13.5376 28.6437 13.3927 28.6157 13.2475 28.5546C12.6836 28.3089 12.4153 27.6554 12.6556 27.0862L12.6556 27.0865ZM5.78326 17.2333L10.2214 12.7951C10.6567 12.3598 11.3658 12.3598 11.8012 12.7951C12.2366 13.2305 12.2366 13.9396 11.8012 14.375L8.15016 18.0202L11.8012 21.6654C12.2366 22.1008 12.2366 22.8098 11.8012 23.2453C11.5836 23.4629 11.2989 23.5689 11.0084 23.5689C10.7238 23.5689 10.4391 23.4629 10.2214 23.2453L5.7833 18.8071C5.57691 18.6008 5.4597 18.3157 5.4597 18.0201C5.4597 17.7242 5.57691 17.4395 5.7833 17.2332L5.78326 17.2333ZM17.1218 41.942H13.845V38.6652H10.5681V41.942H7.29124V38.6652H4.01439V35.3883H7.29124V38.6652H10.5681V35.3883H13.845V38.6652H17.1218V35.3883H20.3987V38.6652H17.1218V41.942ZM25.1214 41.942H20.3987L25.1214 35.3883C26.9303 35.3883 28.3983 36.8564 28.3983 38.6652C28.3983 40.4739 26.9302 41.942 25.1214 41.942ZM29.6658 18.8083L25.2277 23.2465C25.01 23.4641 24.7253 23.5759 24.4407 23.5759C24.1506 23.5759 23.8655 23.4641 23.6479 23.2465C23.2125 22.8111 23.2125 22.102 23.6479 21.6666L27.2931 18.0214L23.6479 14.3762C23.2125 13.9408 23.2125 13.2318 23.6479 12.7963C24.0891 12.361 24.7923 12.361 25.2277 12.7963L29.6658 17.2345C30.1012 17.6694 30.1012 18.3727 29.6658 18.8084L29.6658 18.8083Z" fill="white"/>
</svg>