<svg xmlns="http://www.w3.org/2000/svg" width="37" height="42" viewBox="0 0 37 42" fill="none">
<g clip-path="url(#clip0_57_1238)">
<path d="M3.04973 23.1855V26.5089H6.27035V23.1855H8.22085V31.834H6.27035V28.2154H3.04973V31.834H1.08643V23.1855H3.04973Z" fill="white"/>
<path d="M11.5953 24.828H9.27295V23.1855H15.9199V24.828H13.5589V31.8342H11.5956L11.5953 24.828Z" fill="white"/>
<path d="M24.2224 28.524C24.184 27.4846 24.1453 26.2273 24.1453 24.9697H24.1069C23.8375 26.0731 23.4783 27.3048 23.1446 28.3186L22.0924 31.6931H20.5654L19.6415 28.3442C19.3593 27.3304 19.064 26.0987 18.8586 24.9697H18.833C18.7818 26.1374 18.7432 27.4718 18.6792 28.5496L18.5253 31.8345H16.7158L17.2677 23.186H19.8725L20.7193 26.073C20.9887 27.074 21.2584 28.1518 21.4506 29.1656H21.489C21.7328 28.1646 22.0281 27.0228 22.3102 26.0602L23.2341 23.186H25.7874L26.2625 31.8345H24.3503L24.2224 28.524Z" fill="white"/>
<path d="M27.7637 23.1855H29.727V30.1917H33.1658V31.8342H27.7637V23.1855Z" fill="white"/>
<path d="M24.0564 9.98757H30.2891C28.4189 7.36213 24.7595 3.2016 22.6899 1.38232V8.41874C22.6897 9.28388 23.3026 9.98757 24.0564 9.98757Z" fill="white"/>
<path d="M31.4599 17.5758V12.2173H24.0558C22.2309 12.2173 20.7459 10.5135 20.7459 8.41893V0.480957H2.6164C1.32476 0.480957 0.277832 1.68241 0.277832 3.16485V11.4253H0.282777V19.2873H35.0106V35.3889H0.283522V39.4281C0.334722 40.8579 1.35815 42 2.61718 42H29.1225C30.4142 42 31.4608 40.7982 31.4608 39.3164V37.1H36.7224V17.5764L31.4599 17.5758Z" fill="white"/>
</g>
<defs>
<clipPath id="clip0_57_1238">
<rect width="37" height="42" fill="white"/>
</clipPath>
</defs>
</svg>