<svg xmlns="http://www.w3.org/2000/svg" width="47" height="46" viewBox="0 0 47 46" fill="none">
<path d="M41.0196 19.2399V17.8239C41.0196 8.00855 33.011 0 23.1957 0C13.3803 0 5.37177 8.00855 5.37177 17.8239V19.2399C2.24648 20.412 0 23.4395 0 26.9554C0 31.4967 3.71119 35.2082 8.2528 35.2082H11.2316C12.013 35.2082 12.6476 34.5733 12.6476 33.7923V20.1191C12.6476 19.3377 12.0126 18.7032 11.2316 18.7032H9.86428V17.8244C9.86428 10.4507 15.8219 4.49304 23.1956 4.49304C30.5693 4.49304 36.5269 10.4506 36.5269 17.8244V18.7032H35.1596C34.3782 18.7032 33.7436 19.3381 33.7436 20.1191V33.7923C33.7436 34.5737 34.3785 35.2082 35.1596 35.2082H35.7945C34.3785 38.48 31.2533 40.7752 27.5417 41.0681C27.3465 40.1402 26.5161 39.4079 25.4907 39.4079H20.8517C19.6797 39.4079 18.7521 40.3358 18.7521 41.5075V43.9004C18.7521 45.0724 19.68 46 20.8517 46H25.4907C26.5164 46 27.3952 45.2677 27.5417 44.242C33.0599 43.9491 37.6501 40.1889 39.2127 35.1103C43.2172 34.5731 46.3425 31.1059 46.3425 26.9553C46.3912 23.3909 44.1447 20.4121 41.0194 19.24L41.0196 19.2399Z" fill="white"/>
<path d="M20.4616 18.7515C20.4616 17.9701 20.8035 17.1887 21.4381 16.6519C22.073 16.1147 22.8541 15.9195 23.6846 16.066C24.7589 16.2612 25.6868 17.1403 25.8333 18.2147C26.1263 19.7775 25.101 20.9493 23.9776 21.2913C22.4148 21.7797 21.3895 23.2444 21.3895 24.9537V26.4674C21.3895 27.444 22.1709 28.2254 23.1474 28.2254C24.124 28.2254 24.9054 27.444 24.9054 26.4674V24.9537C24.9054 24.8072 25.0032 24.6608 25.0519 24.6608C28.0307 23.6842 29.8374 20.7054 29.3002 17.5801C28.8608 15.0407 26.8099 12.9898 24.2705 12.5503C22.4147 12.2084 20.5593 12.6968 19.143 13.9177C17.727 15.0897 16.8965 16.8478 16.8965 18.7032C16.8965 19.6797 17.6779 20.4612 18.6545 20.4612C19.6801 20.5095 20.4616 19.728 20.4616 18.7515Z" fill="white"/>
<path d="M25.1 31.6434C25.1 32.6952 24.2474 33.5478 23.1955 33.5478C22.1436 33.5478 21.291 32.6952 21.291 31.6434C21.291 30.5915 22.1436 29.7389 23.1955 29.7389C24.2474 29.7389 25.1 30.5915 25.1 31.6434Z" fill="white"/>
</svg>