<svg xmlns="http://www.w3.org/2000/svg" width="166" height="64" viewBox="0 0 166 64" fill="none">
<path d="M49.5253 2.52022L49.5264 2.02022L49.2783 2.01967L49.1278 2.21688L49.5253 2.52022ZM12.2584 54.8804C12.276 53.4078 11.0965 52.1996 9.62386 52.182C8.15121 52.1643 6.9431 53.3439 6.92548 54.8165C6.90785 56.2892 8.08739 57.4973 9.56005 57.5149C11.0327 57.5326 12.2408 56.3531 12.2584 54.8804ZM165.029 2.27525L49.5264 2.02022L49.5242 3.02022L165.027 3.27525L165.029 2.27525ZM49.1278 2.21688L9.19446 54.5451L9.98943 55.1518L49.9228 2.82355L49.1278 2.21688Z" fill="#3AEDB1"/>
<circle cx="9.48828" cy="55.0619" r="8" transform="rotate(180 9.48828 55.0619)" stroke="#3AEDB1"/>
</svg>