<svg xmlns="http://www.w3.org/2000/svg" width="63" height="69" viewBox="0 0 63 69" fill="none">
<path d="M14.4515 27.9248H5.04664C3.92156 27.928 2.84348 28.3764 2.04793 29.172C1.25238 29.9675 0.804013 31.0456 0.800781 32.1707V40.4201C0.804372 41.545 1.2529 42.6227 2.04841 43.418C2.84393 44.2132 3.9218 44.6614 5.04664 44.6646H14.4515C14.555 44.6643 14.6541 44.623 14.7273 44.5498C14.8004 44.4767 14.8417 44.3775 14.842 44.2741V28.3154C14.8417 28.2119 14.8004 28.1128 14.7273 28.0396C14.6541 27.9664 14.555 27.9252 14.4515 27.9248Z" fill="url(#paint0_linear_1276_21125)"/>
<path d="M49.2201 27.9271H58.6249C59.7498 27.9304 60.8278 28.3788 61.6231 29.1744C62.4185 29.97 62.8665 31.048 62.8694 32.173V40.4225C62.8662 41.5472 62.4179 42.6249 61.6226 43.4202C60.8273 44.2155 59.7496 44.6637 58.6249 44.667H49.2201C49.1163 44.667 49.0169 44.6259 48.9434 44.5526C48.8699 44.4794 48.8285 44.3801 48.8281 44.2764V28.3177C48.8285 28.214 48.8699 28.1146 48.9434 28.0414C49.0169 27.9682 49.1163 27.9271 49.2201 27.9271Z" fill="url(#paint1_linear_1276_21125)"/>
<path d="M30.3359 8.71716H33.3366V20.5783H30.3359V8.71716Z" fill="url(#paint2_linear_1276_21125)"/>
<path d="M16.4513 63.4504C20.9705 66.5843 26.3389 68.2637 31.8384 68.2637C46.7506 68.2637 58.8404 56.1753 58.8404 41.2631C58.8404 26.3508 46.7506 14.261 31.8384 14.261C25.5117 14.2614 19.3859 16.4831 14.5298 20.5385C9.67379 24.594 6.39581 30.2257 5.26781 36.4511C4.40819 41.6239 4.83608 46.9288 6.51365 51.897C8.19123 56.8652 11.0668 61.3436 14.8863 64.9364L15.1707 63.0652L16.4513 63.4504Z" fill="url(#paint3_linear_1276_21125)"/>
<path d="M14.8938 30.5124C15.8638 28.9887 17.0337 27.6019 18.3722 26.389C20.1206 28.1914 22.2132 29.6244 24.5258 30.603C26.8384 31.5815 29.3239 32.0858 31.8351 32.0858C34.3462 32.0858 36.8317 31.5815 39.1443 30.603C41.4569 29.6244 43.5495 28.1914 45.298 26.389C48.6865 29.4554 50.9267 33.5866 51.6481 38.0993C52.3694 42.6119 51.5286 47.2357 49.2648 51.2055H49.2444C47.8993 53.4425 45.998 55.2931 43.7256 56.5775C41.4533 57.8619 38.8871 58.5363 36.2769 58.5351H21.6219L14.8829 64.9311C11.5663 59.8017 9.80276 53.823 9.80469 47.7147C9.80662 41.6064 11.5739 35.6288 14.8938 30.5015V30.5124Z" fill="white"/>
<path d="M31.8323 0.727905C32.9422 0.728175 34.0271 1.05755 34.9498 1.67439C35.8726 2.29122 36.5917 3.16781 37.0162 4.19333C37.4408 5.21884 37.5518 6.34721 37.3351 7.43577C37.1184 8.52433 36.5837 9.52419 35.7988 10.3089C35.0139 11.0937 34.0139 11.628 32.9253 11.8445C31.8367 12.0609 30.7083 11.9497 29.6829 11.5249C28.6575 11.1001 27.7811 10.3807 27.1645 9.45786C26.5479 8.53498 26.2188 7.44998 26.2188 6.34005C26.2187 5.60294 26.364 4.87305 26.6461 4.19206C26.9282 3.51108 27.3417 2.89234 27.863 2.37118C28.3843 1.85003 29.0031 1.43667 29.6842 1.15472C30.3652 0.872759 31.0951 0.727727 31.8323 0.727905Z" fill="url(#paint4_linear_1276_21125)"/>
<path d="M42.1682 44.2934C44.2574 44.2934 45.9521 42.5988 45.9521 40.5088C45.9521 38.4188 44.2616 36.7241 42.1682 36.7241C40.0747 36.7241 38.3828 38.4188 38.3828 40.5088C38.3828 42.5988 40.0776 44.2934 42.1682 44.2934Z" fill="url(#paint5_linear_1276_21125)"/>
<path d="M21.7612 44.2934C19.671 44.2934 17.9766 42.5988 17.9766 40.5088C17.9766 38.4188 19.6668 36.7241 21.7612 36.7241C23.8557 36.7241 25.5459 38.4188 25.5459 40.5088C25.5459 42.5988 23.8514 44.2934 21.7612 44.2934Z" fill="url(#paint6_linear_1276_21125)"/>
<path d="M5.26435 36.4505C5.80573 33.4547 6.85019 30.5721 8.35349 27.9248H5.10241C4.49821 29.5001 4.04261 31.1284 3.74156 32.7885C3.09331 36.6828 3.1736 40.6636 3.97835 44.5285C4.30208 44.6127 4.63462 44.6584 4.96905 44.6646C4.80204 42.887 4.78474 41.0984 4.91734 39.3178C4.9881 38.3625 5.10287 37.4068 5.26164 36.4505H5.26435Z" fill="#2BB688"/>
<path d="M58.4055 36.4505C57.8642 33.4547 56.8197 30.5721 55.3164 27.9248H58.5675C59.1717 29.5001 59.6273 31.1284 59.9283 32.7885C60.5766 36.6828 60.4963 40.6636 59.6915 44.5285C59.3678 44.6128 59.0353 44.6585 58.7008 44.6646C58.8679 42.887 58.8852 41.0984 58.7526 39.3178C58.6818 38.3625 58.567 37.4068 58.4083 36.4505H58.4055Z" fill="#2BB688"/>
<path d="M45.2973 26.389C43.5489 28.1914 41.4563 29.6244 39.1437 30.603C36.8311 31.5815 34.3455 32.0858 31.8344 32.0858C29.3233 32.0858 26.8377 31.5815 24.5251 30.603C22.2125 29.6244 20.12 28.1914 18.3715 26.389C17.033 27.6019 15.8631 28.9887 14.8932 30.5124L14.8415 30.5913C11.2318 36.203 9.48587 42.8109 9.85259 49.4732C10.1535 43.9937 11.8726 38.6863 14.8415 34.071C14.8592 34.0438 14.8755 34.0166 14.8932 33.9908C15.8633 32.468 17.0332 31.0821 18.3715 29.8701C20.12 31.6725 22.2125 33.1055 24.5251 34.084C26.8377 35.0626 29.3233 35.5668 31.8344 35.5668C34.3455 35.5668 36.8311 35.0626 39.1437 34.084C41.4563 33.1055 43.5489 31.6725 45.2973 29.8701C49.0566 33.266 51.3905 37.9595 51.8294 43.0064C51.8784 42.433 51.9033 41.8533 51.9043 41.2672C51.906 38.4638 51.3193 35.6913 50.1821 33.1289C49.045 30.5665 47.3827 28.2713 45.3028 26.3918L45.2973 26.389Z" fill="#2BB688"/>
<path d="M14.8828 64.9373L16.4478 63.4513L21.619 58.5345H36.2768C38.887 58.5358 41.4531 57.8614 43.7255 56.577C45.9979 55.2926 47.8991 53.4419 49.2443 51.205H49.2647C50.4233 49.1818 51.2174 46.9709 51.6108 44.6729C51.7015 44.1285 51.7728 43.5742 51.8245 43.0099C51.8762 42.4456 51.9011 41.8659 51.8993 41.2708C51.8993 40.9305 51.8898 40.5903 51.8735 40.2556C51.7203 43.3954 50.8263 46.4545 49.2647 49.1827H49.2443C47.8991 51.4197 45.9979 53.2704 43.7255 54.5548C41.4531 55.8392 38.887 56.5135 36.2768 56.5123H21.0243L14.8828 64.9496V64.9373Z" fill="#2BB688"/>
<path d="M27.0195 49.1945C27.0195 49.1945 29.7921 51.5781 31.7868 51.5781C33.7815 51.5781 36.554 49.1945 36.554 49.1945" stroke="#2BB688" stroke-width="1.2" stroke-linecap="round"/>
<defs>
<linearGradient id="paint0_linear_1276_21125" x1="7.82311" y1="53.3694" x2="7.82311" y2="26.6584" gradientUnits="userSpaceOnUse">
<stop stop-color="#1BB682"/>
<stop offset="1" stop-color="#3AEDB1"/>
</linearGradient>
<linearGradient id="paint1_linear_1276_21125" x1="55.8505" y1="53.3717" x2="55.8505" y2="26.6607" gradientUnits="userSpaceOnUse">
<stop stop-color="#1BB682"/>
<stop offset="1" stop-color="#3AEDB1"/>
</linearGradient>
<linearGradient id="paint2_linear_1276_21125" x1="31.8366" y1="26.7462" x2="31.8366" y2="7.81981" gradientUnits="userSpaceOnUse">
<stop stop-color="#1BB682"/>
<stop offset="1" stop-color="#3AEDB1"/>
</linearGradient>
<linearGradient id="paint3_linear_1276_21125" x1="31.8447" y1="96.3453" x2="31.8447" y2="10.1755" gradientUnits="userSpaceOnUse">
<stop stop-color="#1BB682"/>
<stop offset="1" stop-color="#3AEDB1"/>
</linearGradient>
<linearGradient id="paint4_linear_1276_21125" x1="31.8323" y1="17.7889" x2="31.8323" y2="-0.121266" gradientUnits="userSpaceOnUse">
<stop stop-color="#1BB682"/>
<stop offset="1" stop-color="#3AEDB1"/>
</linearGradient>
<linearGradient id="paint5_linear_1276_21125" x1="42.1684" y1="48.2295" x2="42.1684" y2="36.1515" gradientUnits="userSpaceOnUse">
<stop stop-color="#1BB682"/>
<stop offset="1" stop-color="#3AEDB1"/>
</linearGradient>
<linearGradient id="paint6_linear_1276_21125" x1="21.7621" y1="48.2295" x2="21.7621" y2="36.1515" gradientUnits="userSpaceOnUse">
<stop stop-color="#1BB682"/>
<stop offset="1" stop-color="#3AEDB1"/>
</linearGradient>
</defs>
</svg>